<svg width="60" height="66" viewBox="0 0 60 66" fill="none" xmlns="http://www.w3.org/2000/svg">
<path d="M43.8281 51.0469C43.1166 51.0469 42.5391 51.6244 42.5391 52.3359C42.5391 53.0475 43.1166 53.625 43.8281 53.625C44.5397 53.625 45.1172 53.0475 45.1172 52.3359C45.1172 51.6244 44.5397 51.0469 43.8281 51.0469Z" fill="#244D4D"/>
<path d="M47.0021 46.8784L40.8751 44.8366L38.6756 40.4374C40.6572 38.4205 42.033 35.7519 42.4969 32.9684L42.7712 31.3242H45.1172C47.2496 31.3242 48.9844 29.5894 48.9844 27.457V19.3359C48.9844 8.6741 40.3103 0 29.6484 0C18.9593 0 10.3125 8.64922 10.3125 19.3359V27.457C10.3125 29.1375 11.3903 30.5704 12.8906 31.1025V32.6133C12.8906 34.7456 14.6254 36.4805 16.7578 36.4805H17.8899C18.4487 37.6944 19.172 38.8187 20.0521 39.8287C20.2347 40.0385 20.4251 40.242 20.6201 40.4398L18.4217 44.8366L12.2947 46.8786C5.17069 49.254 0 56.7537 0 64.7109C0 65.4229 0.577113 66 1.28906 66H58.0078C58.7196 66 59.2969 65.4229 59.2969 64.7109C59.2969 56.7537 54.1263 49.254 47.0021 46.8784ZM46.4062 27.457C46.4062 28.1678 45.828 28.7461 45.1172 28.7461H43.1498C43.4775 26.2079 43.6959 23.507 43.7837 20.8467C43.7862 20.7717 43.7883 20.6987 43.7906 20.625H46.4062V27.457ZM14.1797 28.7461C13.4689 28.7461 12.8906 28.1678 12.8906 27.457V20.625H15.5072C15.5114 20.7594 15.5159 20.8945 15.521 21.0305C15.5211 21.0352 15.5213 21.0397 15.5215 21.0443C15.5215 21.0447 15.5215 21.0451 15.5215 21.0455C15.6117 23.6329 15.8272 26.2637 16.1474 28.746H14.1797V28.7461ZM16.7578 33.9023C16.047 33.9023 15.4688 33.3241 15.4688 32.6133V31.3242H16.5255L16.7998 32.9689C16.8522 33.2815 16.9165 33.593 16.9909 33.9023H16.7578ZM15.4709 18.0469H12.9396C13.5925 9.40745 20.8025 2.57812 29.6484 2.57812C38.4551 2.57812 45.6967 9.40655 46.3571 18.0469H43.8261C43.7333 10.9278 37.9359 5.15625 30.8023 5.15625H28.4949C21.3613 5.15625 15.5636 10.9278 15.4709 18.0469ZM28.4947 7.73438H30.8022C36.5783 7.73438 41.2534 12.4589 41.25 18.2286C41.25 18.6343 41.2468 18.9875 41.2399 19.3089C41.2399 19.313 41.2398 19.3172 41.2398 19.3215L39.6275 19.0911C35.2472 18.4657 31.1114 16.3978 27.9818 13.2682C27.74 13.0265 27.4122 12.8906 27.0703 12.8906C23.6084 12.8906 20.2945 14.4679 18.1039 17.1327C18.6437 11.8837 23.0811 7.73438 28.4947 7.73438ZM19.6634 33.9023C19.0181 31.7557 18.2797 25.4393 18.1165 21.3916L19.8514 19.0783C21.4448 16.9544 23.9238 15.6348 26.5609 15.4833C30.0306 18.7854 34.5194 20.966 39.2629 21.6432L41.1607 21.9144C41.0338 24.6067 40.7746 27.3083 40.4032 29.7929C40.4031 29.7937 40.403 29.7946 40.4028 29.7955C40.2848 30.5944 40.1917 31.1084 39.954 32.5443C39.2713 36.639 36.216 40.3419 32.1826 41.3503C30.5227 41.7647 28.7739 41.7646 27.1149 41.3503C24.5965 40.7207 22.2872 38.9782 20.797 36.4805H23.4248C23.957 37.9808 25.3898 39.0586 27.0703 39.0586H29.6484C31.7851 39.0586 33.5156 37.3282 33.5156 35.1914C33.5156 33.059 31.7808 31.3242 29.6484 31.3242H27.0703C25.3524 31.3242 23.9407 32.4338 23.4227 33.9023H19.6634ZM26.9619 43.9591C27.8461 44.1454 28.7475 44.2406 29.6484 44.2406C30.3537 44.2406 31.0591 44.1816 31.7564 44.0671L29.4787 46.476L26.9619 43.9591ZM27.7065 48.35L23.6178 52.6738C22.4922 50.5193 21.525 48.2769 20.7317 45.9814L22.2671 42.9106L27.7065 48.35ZM36.8112 42.4738L38.5649 45.9812C37.7703 48.2807 36.8029 50.5238 35.6784 52.6757L31.3023 48.2996L36.8112 42.4738ZM25.7812 35.1914C25.7812 34.4797 26.3585 33.9023 27.0703 33.9023H29.6484C30.3592 33.9023 30.9375 34.4806 30.9375 35.1914C30.9375 35.9032 30.3601 36.4805 29.6484 36.4805H27.0703C26.3595 36.4805 25.7812 35.9022 25.7812 35.1914ZM2.62969 63.4219C3.14054 57.036 7.39045 51.2316 13.11 49.3243L18.5362 47.516C19.5303 50.2649 20.7619 52.9368 22.2053 55.4747C22.2077 55.4791 22.21 55.4834 22.2125 55.4877C22.2125 55.4878 22.2126 55.4878 22.2126 55.488C23.2672 57.3428 24.4542 59.1553 25.741 60.8761L27.3268 63.4219H2.62969ZM29.6484 62.2728L27.9002 59.4661C27.8806 59.4347 27.8597 59.4041 27.8376 59.3745C26.7937 57.982 25.8199 56.5258 24.933 55.0352L29.5302 50.1737L34.3743 55.0177C33.4815 56.5191 32.5044 57.9814 31.4596 59.3742C31.3964 59.4584 31.486 59.3257 29.6484 62.2728ZM31.97 63.4219L33.5557 60.8762C34.8483 59.1489 36.0437 57.3218 37.1089 55.4452C37.1153 55.4338 37.1214 55.4222 37.1278 55.4109C37.1286 55.4094 37.1294 55.4082 37.1302 55.4067C38.5552 52.8931 39.7739 50.2444 40.7607 47.516L46.1867 49.3243C51.9064 51.2316 56.1563 57.036 56.6672 63.4219H31.97Z" fill="#244D4D"/>
<path d="M52.793 58.2052C51.9316 56.4808 50.6697 54.9489 49.1438 53.7751C48.5795 53.3408 47.7702 53.4463 47.3362 54.0107C46.902 54.575 47.0076 55.3843 47.5718 55.8185C48.7905 56.756 49.7983 57.9797 50.4865 59.3573C50.8053 59.9953 51.58 60.2521 52.2158 59.9345C52.8526 59.6163 53.1111 58.8421 52.793 58.2052Z" fill="#244D4D"/>
</svg>
