<svg xmlns="http://www.w3.org/2000/svg" width="65.48" height="66" viewBox="0 0 65.48 66">
  <g id="architecture" transform="translate(-19 -18.23)">
    <path id="Path_46" data-name="Path 46" d="M103.629,26.5l-3.785,3.785-3.236-3.236L93.38,23.811l2.095-2.095,1.69-1.69a3.527,3.527,0,0,1,4.969,0l1.5,1.5a3.5,3.5,0,0,1,0,4.969Z" transform="translate(-20.658 -0.215)" fill="#244d4d"/>
    <path id="Path_47" data-name="Path 47" d="M76,38.263V58.14L54.961,79.179H25.515a6.515,6.515,0,1,1,0-13.03h5.814V36.27H65.058L53.185,48.151a3.669,3.669,0,0,0,3.228,3.228,3.71,3.71,0,0,0,1.054,2.181,3.64,3.64,0,0,0,2.181,1.047h.007Z" transform="translate(0 -5.01)" fill="#cdd6df"/>
    <path id="Path_48" data-name="Path 48" d="M31.329,18.23V61.139H25.515A6.516,6.516,0,0,0,19,67.653V24.694a6.513,6.513,0,0,1,5.72-6.464Z" fill="#abb2ba"/>
    <path id="Path_49" data-name="Path 49" d="M93.544,56.544l-7.165,7.165L56.593,93.495a.769.769,0,0,0,.542,1.315H94.858V57.093a.771.771,0,0,0-1.315-.549ZM88,87.948H71.84L88,71.791Z" transform="translate(-10.378 -10.579)" fill="#244d4d"/>
    <path id="Path_50" data-name="Path 50" d="M92.331,32.131l-3.185,3.185L72.8,51.661h-.007a3.64,3.64,0,0,1-2.181-1.047,3.71,3.71,0,0,1-1.054-2.181A3.669,3.669,0,0,1,66.33,45.2L78.2,33.323l7.663-7.663L89.1,28.9Z" transform="translate(-13.146 -2.064)" fill="#6a7474"/>
    <path id="Path_51" data-name="Path 51" d="M71.683,59.177l-4.868,1.51L62.33,62.073l1.387-4.492,1.5-4.861a3.669,3.669,0,0,0,3.228,3.228A3.71,3.71,0,0,0,69.5,58.13,3.64,3.64,0,0,0,71.683,59.177Z" transform="translate(-12.035 -9.579)" fill="#fff7ed"/>
    <path id="Path_52" data-name="Path 52" d="M73.333,103.805a1.263,1.263,0,0,0-1.264,1.264V108H74.6v-2.929a1.263,1.263,0,0,0-1.264-1.264Zm-4.839.855a1.263,1.263,0,0,0-1.264,1.264V108h2.528v-2.074A1.263,1.263,0,0,0,68.5,104.66Zm-4.839-.855a1.264,1.264,0,0,0-1.264,1.264V108h2.528v-2.929a1.263,1.263,0,0,0-1.262-1.264Zm24.191.855a1.263,1.263,0,0,0-1.264,1.264V108H89.11v-2.074a1.264,1.264,0,0,0-1.262-1.264Zm4.839-.855a1.263,1.263,0,0,0-1.264,1.264V108h2.528v-2.929a1.263,1.263,0,0,0-1.263-1.264Zm-14.517.855a1.263,1.263,0,0,0-1.264,1.264V108h2.528v-2.074a1.263,1.263,0,0,0-1.26-1.264Zm4.839-.855a1.264,1.264,0,0,0-1.264,1.264V108H84.27v-2.929a1.263,1.263,0,0,0-1.261-1.264Z" transform="translate(-12.051 -23.768)" fill="#f9eddc"/>
  </g>
</svg>
