<svg xmlns="http://www.w3.org/2000/svg" width="85.572" height="67" viewBox="0 0 85.572 67">
  <g id="sofa" transform="translate(-10 -93.39)">
    <path id="Path_74" data-name="Path 74" d="M344.856,326.4l.021.092a4,4,0,0,0-3.183,3.872v1.452h-.129L319,331.808l0-13.246a3.362,3.362,0,0,1,3.376-3.423h19.1a3.349,3.349,0,0,1,3.383,3.315Z" transform="translate(-255.257 -183.181)" fill="#244d4d"/>
    <path id="Path_75" data-name="Path 75" d="M195.6,318.454l.005,13.354-22.339-.005h-.148v-1.44a3.916,3.916,0,0,0-1.184-2.8,4.059,4.059,0,0,0-2.31-1.122v0l.005-.037v-7.945a3.349,3.349,0,0,1,3.383-3.315h19.2A3.352,3.352,0,0,1,195.6,318.454Z" transform="translate(-131.858 -183.181)" fill="#244d4d"/>
    <path id="Path_76" data-name="Path 76" d="M457.571,383.844v12.164H449.48V383.844a4.065,4.065,0,0,1,6.907-2.8,3.916,3.916,0,0,1,1.184,2.8Z" transform="translate(-363.043 -236.662)" fill="none"/>
    <path id="Path_77" data-name="Path 77" d="M234.891,410.962v8.291h-.118l-45.059-.014h0V410.95h.148l22.339.005,22.565.007Z" transform="translate(-148.454 -262.328)" fill="rgba(46,83,83,0.85)"/>
    <path id="Path_78" data-name="Path 78" d="M204.426,199.778v1.631H188.12v-1.631a8.153,8.153,0,1,1,16.306,0Z" transform="translate(-147.14 -81.149)" fill="#244d4d"/>
    <path id="Path_79" data-name="Path 79" d="M219.97,247.88h5.607a2.805,2.805,0,1,1-5.607,0Z" transform="translate(-173.451 -127.62)" fill="#6fe3ff"/>
    <path id="Path_80" data-name="Path 80" d="M151.281,393.573v2.435H143.19V383.844a4.017,4.017,0,0,1,4.046-3.964,4.118,4.118,0,0,1,.551.037v0a4.059,4.059,0,0,1,2.31,1.122,3.916,3.916,0,0,1,1.184,2.8Z" transform="translate(-110.025 -236.662)" fill="none"/>
    <g id="Group_48" data-name="Group 48" transform="translate(10 93.39)">
      <path id="Path_81" data-name="Path 81" d="M206.243,208.4a9.166,9.166,0,0,0-2.4,2.489,1.044,1.044,0,1,0,1.749,1.139,7.1,7.1,0,0,1,1.852-1.925,1.044,1.044,0,1,0-1.206-1.7Z" transform="translate(-169.993 -188.239)" fill="#abb2ba"/>
      <path id="Path_82" data-name="Path 82" d="M27.349,158.3H19.7V110.482c0-.012,0-.025,0-.037,0-8.254,6.367-14.968,14.194-14.968,7.524,0,13.7,6.207,14.161,14.021a9.208,9.208,0,0,0-8.121,9.131v1.631A1.044,1.044,0,0,0,40.98,121.3h4.644a3.809,3.809,0,0,0,7.4,0h4.262a1.044,1.044,0,0,0,1.044-1.044v-1.632a9.2,9.2,0,0,0-8.179-9.138c-.475-8.962-7.584-16.1-16.254-16.1-8.953,0-16.241,7.61-16.28,16.979,0,.017,0,.037,0,.055V158.3h-6.57a1.044,1.044,0,0,0,0,2.087H27.349a1.044,1.044,0,0,0,0-2.087Zm21.974-36.184a1.73,1.73,0,0,1-1.441-.816h2.881a1.73,1.73,0,0,1-1.44.816Zm6.919-3.491v.588H42.023v-.588a7.109,7.109,0,1,1,14.219,0Z" transform="translate(-10 -93.39)" fill="#abb2ba"/>
      <path id="Path_83" data-name="Path 83" d="M195.711,320.4v-6.9a4.4,4.4,0,0,0-4.426-4.359h-19.1a4.386,4.386,0,0,0-3.131,1.292c-.087.087-.167.177-.245.269a4.445,4.445,0,0,0-3.39-1.56h-19.2a4.4,4.4,0,0,0-4.426,4.359v6.925a5.046,5.046,0,0,0-4.6,4.984v12.164a1.044,1.044,0,0,0,1.044,1.044h8.091a1.044,1.044,0,0,0,1.044-1.044V336.18l43.094.013v1.378a1.044,1.044,0,0,0,1.044,1.044H199.6a1.044,1.044,0,0,0,1.044-1.044V325.407a4.938,4.938,0,0,0-1.5-3.549A5.1,5.1,0,0,0,195.711,320.4Zm-25.174-8.5a2.313,2.313,0,0,1,1.652-.678h19.1a2.309,2.309,0,0,1,2.339,2.271v7.277a5.044,5.044,0,0,0-3.162,4.631v.408l-20.607-.006,0-12.207a2.369,2.369,0,0,1,.68-1.7Zm-24.318-.678h19.2a2.309,2.309,0,0,1,2.339,2.272l.005,12.31-20.4,0v-.4a4.94,4.94,0,0,0-1.5-3.55,5.068,5.068,0,0,0-1.99-1.2V313.5a2.309,2.309,0,0,1,2.339-2.272Zm-.937,25.3h-6v-11.12a2.965,2.965,0,0,1,3-2.92,3.056,3.056,0,0,1,.361.021l.054.008a3,3,0,0,1,1.715.832,2.865,2.865,0,0,1,.872,2.059Zm2.087-2.435v-6.2l21.443.005,21.651.007v6.2Zm51.185,2.435h-6v-11.12a2.96,2.96,0,0,1,2.358-2.851h0a3.059,3.059,0,0,1,2.77.793,2.865,2.865,0,0,1,.872,2.058Z" transform="translate(-115.068 -271.615)" fill="#abb2ba"/>
    </g>
  </g>
</svg>
